<?xml version="1.0" encoding="iso-8859-1"?>
<!-- Generator: Adobe Illustrator 16.0.0, SVG Export Plug-In . SVG Version: 6.00 Build 0)  -->
<!DOCTYPE svg PUBLIC "-//W3C//DTD SVG 1.1//EN" "http://www.w3.org/Graphics/SVG/1.1/DTD/svg11.dtd">
<svg version="1.1" id="Capa_1" xmlns="http://www.w3.org/2000/svg" xmlns:xlink="http://www.w3.org/1999/xlink" x="0px" y="0px"
	 width="460.178px" height="460.179px" viewBox="0 0 460.178 460.179" style="enable-background:new 0 0 460.178 460.179;"
	 xml:space="preserve">
<g>
	<g>
		<path d="M226.424,184.589l33.273,35.454l186.394-101.767c11.205-6.586,16.903-17.719,12.708-24.852l-15.813-26.912
			c-4.196-7.137-16.683-7.574-27.899-0.982L226.424,184.589z"/>
		<path d="M29.896,345.505l166.14-90.708l-32.51-30.515L14.085,318.6c-11.207,6.584-16.899,17.717-12.706,24.854l0.635,1.07
			C6.196,351.656,18.689,352.094,29.896,345.505z"/>
		<path d="M61.387,37.042c-3.28,0-6.188,0.998-8.275,3.085L31.036,62.204c-5.851,5.849-3.14,18.045,6.06,27.245l136.723,128.34
			l33.095,31.078l175.913,165.13c5.91,5.907,13.063,9.141,18.975,9.141c3.282,0,6.188-0.997,8.271-3.081l0.882-0.882
			c5.851-5.851,3.138-18.05-6.063-27.247L249.026,225.865l-32.744-34.878L80.362,46.188C74.451,40.277,67.29,37.042,61.387,37.042z"
			/>
	</g>
</g>
<g>
</g>
<g>
</g>
<g>
</g>
<g>
</g>
<g>
</g>
<g>
</g>
<g>
</g>
<g>
</g>
<g>
</g>
<g>
</g>
<g>
</g>
<g>
</g>
<g>
</g>
<g>
</g>
<g>
</g>
</svg>
