<?xml version="1.0" encoding="iso-8859-1"?>
<!-- Generator: Adobe Illustrator 16.0.0, SVG Export Plug-In . SVG Version: 6.00 Build 0)  -->
<!DOCTYPE svg PUBLIC "-//W3C//DTD SVG 1.1//EN" "http://www.w3.org/Graphics/SVG/1.1/DTD/svg11.dtd">
<svg version="1.1" id="Capa_1" xmlns="http://www.w3.org/2000/svg" xmlns:xlink="http://www.w3.org/1999/xlink" x="0px" y="0px"
	 width="613.451px" height="613.451px" viewBox="0 0 613.451 613.451" style="enable-background:new 0 0 613.451 613.451;"
	 xml:space="preserve">
<g>
	<g>
		<path d="M122.969,445.239c-61.568-81.588-61.678-194.85-0.344-276.557l-54.578-54.578
			c-90.858,112.321-90.724,273.492,0.373,385.684L122.969,445.239z"/>
		<path d="M114.879,67.401l54.626,54.625c81.645-60.722,194.439-60.43,275.729,0.952l54.55-54.549
			C387.851-22.453,227.167-22.816,114.879,67.401z"/>
		<path d="M432.852,180.592c-7.727-7.727-16.008-14.544-24.681-20.554c-60.416-41.884-140.89-42.185-201.583-0.928
			c-9.161,6.225-17.887,13.359-26.01,21.482c-7.87,7.87-14.798,16.314-20.889,25.159c-41.865,60.803-41.75,141.735,0.334,202.433
			c6.01,8.673,12.828,16.954,20.555,24.676c8.262,8.262,17.15,15.511,26.488,21.816c60.478,40.822,140.421,40.512,200.621-0.927
			c8.846-6.092,17.289-13.02,25.159-20.89c8.118-8.118,15.252-16.85,21.482-26.01c40.841-60.091,40.961-139.579,0.334-199.77
			C448.361,197.743,441.113,188.854,432.852,180.592z"/>
		<path d="M169.974,491.774l-54.636,54.631c112.116,89.729,272.24,89.391,383.997-1.014l-54.573-54.573
			C363.662,551.736,251.422,552.028,169.974,491.774z"/>
		<path d="M491.766,169.978c60.072,81.157,59.957,192.928-0.344,273.965l54.621,54.621c89.763-111.724,89.873-271.364,0.354-383.217
			L491.766,169.978z"/>
	</g>
</g>
<g>
</g>
<g>
</g>
<g>
</g>
<g>
</g>
<g>
</g>
<g>
</g>
<g>
</g>
<g>
</g>
<g>
</g>
<g>
</g>
<g>
</g>
<g>
</g>
<g>
</g>
<g>
</g>
<g>
</g>
</svg>
