<?xml version="1.0" encoding="iso-8859-1"?>
<!-- Generator: Adobe Illustrator 18.1.1, SVG Export Plug-In . SVG Version: 6.00 Build 0)  -->
<svg version="1.1" id="Capa_1" xmlns="http://www.w3.org/2000/svg" xmlns:xlink="http://www.w3.org/1999/xlink" x="0px" y="0px"
	 viewBox="0 0 201.125 201.125" style="enable-background:new 0 0 201.125 201.125;" xml:space="preserve">
<g>
	<path style="fill:#010002;" d="M139.228,75.015v5.478l18.491,10.991l-24.237,13.891V11.421l13.02,13.014
		c0.585,0.585,1.349,0.871,2.112,0.871s1.528-0.292,2.112-0.871c1.164-1.164,1.164-3.055,0-4.219L132.617,2.112c0,0,0,0-0.006-0.006
		L130.504,0l-2.106,2.106l0,0l-18.109,18.109c-1.164,1.164-1.164,3.055,0,4.219c1.164,1.164,3.055,1.164,4.219,0l13.02-13.014v96.89
		c0,0.155,0.066,0.286,0.09,0.436l-24.082,13.789V46.1l13.02,13.014c0.585,0.585,1.349,0.871,2.112,0.871
		c0.764,0,1.528-0.292,2.112-0.871c1.164-1.164,1.164-3.055,0-4.219l-18.109-18.103c0,0,0,0-0.006-0.006l-2.106-2.106l-2.106,2.106
		c0,0-0.006,0.006-0.012,0.006L80.341,54.895c-1.164,1.164-1.164,3.055,0,4.219c1.164,1.164,3.055,1.164,4.219,0L97.573,46.1v76.436
		l-24.058-13.789c0.024-0.149,0.09-0.28,0.09-0.436V80.779l13.014,13.02c0.585,0.585,1.349,0.871,2.112,0.871
		c0.764,0,1.528-0.292,2.112-0.871c1.164-1.164,1.164-3.055,0-4.219L72.745,71.477c-0.006,0-0.006-0.006-0.012-0.012l-2.106-2.106
		l-2.106,2.106l0,0L50.411,89.575c-1.164,1.164-1.164,3.055,0,4.219c1.164,1.164,3.055,1.164,4.219,0l13.02-13.02v24.601
		L42.863,91.174L55.035,79.33L36.449,90.052v74.049l64.102,37.024l64.126-37.018V90.058L139.228,75.015z M41.174,95.697
		l56.608,32.436c0.095,0.245,0.245,0.442,0.394,0.644v65.492l-57.007-32.913L41.174,95.697L41.174,95.697z M102.926,194.269v-65.498
		c0.149-0.203,0.298-0.4,0.388-0.644l56.608-32.43v65.665L102.926,194.269z"/>
</g>
<g>
</g>
<g>
</g>
<g>
</g>
<g>
</g>
<g>
</g>
<g>
</g>
<g>
</g>
<g>
</g>
<g>
</g>
<g>
</g>
<g>
</g>
<g>
</g>
<g>
</g>
<g>
</g>
<g>
</g>
</svg>
