<?xml version="1.0" encoding="iso-8859-1"?>
<!-- Generator: Adobe Illustrator 16.0.0, SVG Export Plug-In . SVG Version: 6.00 Build 0)  -->
<!DOCTYPE svg PUBLIC "-//W3C//DTD SVG 1.1//EN" "http://www.w3.org/Graphics/SVG/1.1/DTD/svg11.dtd">
<svg version="1.1" id="Layer_3" xmlns="http://www.w3.org/2000/svg" xmlns:xlink="http://www.w3.org/1999/xlink" x="0px" y="0px"
	 width="512px" height="512px" viewBox="0 0 512 512" style="enable-background:new 0 0 512 512;" xml:space="preserve">
<g>
	<path d="M427.254,84.746C381.51,39.003,320.691,13.811,256,13.811S130.49,39.003,84.746,84.746
		C39.003,130.49,13.811,191.309,13.811,256s25.192,125.51,70.936,171.254C130.49,472.997,191.309,498.189,256,498.189
		s125.51-25.192,171.254-70.936C472.997,381.51,498.189,320.691,498.189,256S472.997,130.49,427.254,84.746z M281,446.564v-62.659
		h-50v62.659C144.98,435.341,76.659,367.02,65.436,281h62.659v-50H65.436C76.659,144.98,144.98,76.659,231,65.436v62.659h50V65.436
		C367.02,76.659,435.341,144.98,446.564,231h-62.659v50h62.659C435.341,367.02,367.02,435.341,281,446.564z"/>
	<circle cx="256" cy="256" r="35.998"/>
</g>
</svg>
