<?xml version="1.0" encoding="iso-8859-1"?>
<!-- Generator: Adobe Illustrator 16.0.0, SVG Export Plug-In . SVG Version: 6.00 Build 0)  -->
<!DOCTYPE svg PUBLIC "-//W3C//DTD SVG 1.1//EN" "http://www.w3.org/Graphics/SVG/1.1/DTD/svg11.dtd">
<svg version="1.1" id="Layer_1" xmlns="http://www.w3.org/2000/svg" xmlns:xlink="http://www.w3.org/1999/xlink" x="0px" y="0px"
	 width="512px" height="512px" viewBox="0 0 512 512" style="enable-background:new 0 0 512 512;" xml:space="preserve">
<path d="M349.344,53.007c-36.879,0-70.09,16.419-93.344,42.648c-23.252-26.229-56.465-42.648-93.344-42.648
	c-70.32,0-127.328,59.675-127.328,133.29c0,19.779,3.338,38.813,9.184,56.989c0,0,5.301,16.401,9.997,25.428
	C108.18,384.142,256,458.993,256,458.993s147.82-74.852,201.491-190.279c0,0,6.925-15.38,9.997-25.428
	c5.582-18.26,9.184-37.21,9.184-56.989C476.672,112.682,419.664,53.007,349.344,53.007z"/>
</svg>
