<?xml version="1.0" encoding="iso-8859-1"?>
<!-- Generator: Adobe Illustrator 16.0.0, SVG Export Plug-In . SVG Version: 6.00 Build 0)  -->
<!DOCTYPE svg PUBLIC "-//W3C//DTD SVG 1.1//EN" "http://www.w3.org/Graphics/SVG/1.1/DTD/svg11.dtd">
<svg version="1.1" id="Layer_2" xmlns="http://www.w3.org/2000/svg" xmlns:xlink="http://www.w3.org/1999/xlink" x="0px" y="0px"
	 width="512px" height="512px" viewBox="0 0 512 512" style="enable-background:new 0 0 512 512;" xml:space="preserve">
<path d="M256,6.043C117.953,6.043,6.043,117.953,6.043,256S117.953,505.957,256,505.957S505.957,394.047,505.957,256
	S394.047,6.043,256,6.043z M390.861,93.048c18.848,16.468,34.796,35.888,47.402,57.721c12.605,21.835,21.451,45.358,26.287,69.916
	l-56.012,11.032c-3.621-18.386-10.254-36.016-19.715-52.403c-9.463-16.385-21.414-30.947-35.525-43.274L390.861,93.048z M256,45.539
	c25.211,0,50.005,4.102,73.689,12.192l-18.45,54.024c-17.732-6.056-36.317-9.127-55.239-9.127s-37.507,3.072-55.238,9.127
	L182.31,57.731C205.994,49.641,230.789,45.539,256,45.539z M121.139,418.952c-18.848-16.467-34.797-35.887-47.402-57.721
	c-12.607-21.835-21.453-45.357-26.287-69.914l56.012-11.033c3.621,18.385,10.254,36.015,19.715,52.402
	c9.463,16.386,21.414,30.947,35.523,43.274L121.139,418.952z M123.176,179.314c-9.461,16.387-16.094,34.017-19.715,52.402
	l-56.012-11.033c4.834-24.556,13.68-48.078,26.285-69.913c12.607-21.835,28.557-41.255,47.404-57.723l37.561,42.993
	C144.59,148.367,132.637,162.928,123.176,179.314z M256.002,466.461c-25.215,0-50.008-4.102-73.692-12.192l18.452-54.023
	c17.731,6.057,36.316,9.127,55.238,9.127c18.922-0.001,37.507-3.072,55.239-9.127l18.45,54.025
	C306.008,462.358,281.215,466.46,256.002,466.461z M256,331.385c0,0-85.082-41.446-85.082-105.987
	c0-24.733,20.05-44.783,44.783-44.783c17.723,0,33.039,10.295,40.299,25.23c7.26-14.935,22.576-25.23,40.299-25.23
	c24.732,0,44.783,20.05,44.783,44.783C341.082,289.939,256,331.385,256,331.385z M438.266,361.229
	c-12.605,21.835-28.557,41.256-47.404,57.724l-37.563-42.993c14.111-12.328,26.065-26.888,35.525-43.274
	c9.461-16.387,16.094-34.018,19.715-52.402l56.012,11.033C459.713,315.873,450.869,339.395,438.266,361.229z"/>
</svg>
