<?xml version="1.0" encoding="iso-8859-1"?>
<!-- Generator: Adobe Illustrator 16.0.0, SVG Export Plug-In . SVG Version: 6.00 Build 0)  -->
<!DOCTYPE svg PUBLIC "-//W3C//DTD SVG 1.1//EN" "http://www.w3.org/Graphics/SVG/1.1/DTD/svg11.dtd">
<svg version="1.1" id="Capa_1" xmlns="http://www.w3.org/2000/svg" xmlns:xlink="http://www.w3.org/1999/xlink" x="0px" y="0px"
	 width="343.513px" height="343.513px" viewBox="0 0 343.513 343.513" style="enable-background:new 0 0 343.513 343.513;"
	 xml:space="preserve">
<g>
	<g>
		<path d="M341.153,120.09c-4.896-4.896-12.24-1.224-16.523,3.06c-1.225,1.224-1.837,2.448-3.061,3.06
			c-0.612-12.24-3.06-24.48-7.956-34.884c3.061-9.792,4.896-41.004-9.792-40.392c-8.567,0.612-8.567,10.404-6.12,20.196
			c-1.836-1.836-4.284-3.06-6.731-4.284c-12.24-6.12-24.48-6.12-36.108-2.448c0-0.612,0-1.836-0.612-2.448
			c-4.896-4.896-11.016-8.568-18.359-8.568c-5.508,0-12.24,3.06-14.076,8.568c-1.836,6.12,3.06,10.404,7.956,12.24
			c1.224,0.612,3.06,0.612,4.284,1.224c-7.345,5.508-13.464,11.628-18.36,18.36c-6.12-2.448-12.24-3.06-18.36-1.224
			c-5.508,1.836-10.403,6.12-7.956,12.24c4.284,11.016,19.585,7.956,29.377,1.836c-0.612,3.672-1.225,7.344,0.611,11.016
			c1.836,6.12,6.732,9.18,12.853,9.792c1.224,0,2.447-0.612,3.06-1.836c3.672-6.732,4.284-14.076,1.836-20.808
			c-1.836-4.896-5.508-11.016-10.404-12.852c6.12-5.508,12.24-10.404,18.973-14.688c-1.225,2.448-2.448,4.896-3.061,7.344
			c-1.224,6.12-3.06,15.3,3.672,18.972c6.12,3.06,11.629-1.224,14.076-6.732c3.061-7.344,4.896-18.36,2.448-26.316
			c6.12-1.224,12.24-1.224,18.36,0.612c4.896,1.224,9.18,3.672,12.239,6.12c-6.119,0-12.852,2.448-15.911,7.344
			c-3.673,4.896-4.284,12.852,1.224,17.136c5.508,4.284,14.076,1.224,20.196-0.612c3.06-1.224,5.508-3.06,7.956-4.896
			c3.672,8.568,4.896,17.748,5.508,26.928c0.611,3.06,0.611,6.12,0.611,9.18c-1.836-1.836-3.672-4.284-6.119-6.12
			c-2.448-2.448-4.284-4.896-7.345-5.508c-6.731-2.448-11.016,4.896-9.18,11.016s7.344,11.016,13.464,13.464
			c3.061,1.224,6.12,1.836,9.18,1.224c-0.611,13.464-3.06,26.927-6.731,39.78c-0.612-6.12-3.061-13.464-6.732-17.136
			s-9.18-4.284-12.239,0c-6.732,9.792,4.283,25.092,13.464,33.048c-4.896,12.239-11.017,23.256-17.748,33.66
			c-1.225-6.12-3.061-12.24-6.732-17.137c-2.448-3.672-7.956-7.344-12.24-5.508c-6.119,3.061-2.447,11.628,0,16.524
			c3.061,6.12,7.345,10.403,12.853,14.075c-6.732,8.568-14.076,16.524-22.645,24.48c-0.611-4.896-1.836-10.404-4.283-14.076
			c-2.448-3.672-7.345-7.956-12.24-5.508c-4.896,3.06-3.061,11.016-1.836,15.3c1.836,4.896,4.284,9.181,8.567,12.24
			c-8.567,7.344-17.748,14.076-27.54,20.808c-1.224,1.225-0.611,3.672,1.225,3.061c10.404-3.672,20.196-8.568,29.376-14.688
			c7.956,9.181,31.824,15.3,37.943,3.061c3.061-6.12-1.836-11.628-7.344-14.076c-4.896-1.836-11.016-1.836-16.523,0
			c7.344-6.12,14.076-13.464,19.584-20.809c5.508,3.673,13.464,4.284,19.584,3.061s15.912-4.896,18.359-11.016
			c4.284-12.853-17.136-10.404-28.151-5.509c7.344-11.016,12.852-22.644,17.748-34.271c14.076,1.836,33.048-12.24,25.092-27.54
			c-0.612-1.225-2.448-2.448-4.284-1.836c-4.896,1.836-9.792,4.284-13.464,7.956c3.06-12.852,5.508-25.704,6.12-38.556
			c6.12,0,12.852-6.732,16.523-10.404C342.377,132.33,346.05,124.986,341.153,120.09z"/>
		<path d="M183.869,103.566c-4.283-3.672-10.403-5.508-15.911-4.284c0,0-0.612,0-0.612,0.612c-1.224-4.896-3.672-9.792-6.12-14.688
			c3.672,1.224,7.956,1.836,11.628,1.224c4.895-1.224,11.627-5.508,9.179-11.016c-2.447-5.508-12.239-7.344-17.135-7.344
			s-10.404,1.224-14.076,4.284c-7.344-6.732-15.912-11.628-25.092-15.3c5.508-2.448,10.404-6.732,12.852-12.852
			c0-0.612,0-1.836-0.612-2.448c-4.896-4.284-12.24-4.896-18.36-1.836c-4.896,2.448-8.568,7.956-9.18,13.464
			c-3.672-0.612-6.732-0.612-10.404-0.612c-7.344,0-15.3,1.836-22.032,4.284c4.284-8.568,5.508-20.808-1.836-23.256
			c-6.12-2.448-11.016,4.896-12.24,9.792c-1.836,6.12-0.612,12.24,3.06,18.36C56.574,68.07,46.782,76.638,40.05,86.43
			c-1.224-4.284-2.448-9.18-5.508-12.24c-3.672-4.284-10.404-6.12-14.688-1.836c-4.284,4.896,0,12.852,3.672,17.136
			c2.448,3.06,5.508,6.12,9.18,7.344c-3.06,5.508-5.508,11.016-7.344,16.524c-1.836,6.732-3.06,12.852-4.284,19.584
			c-1.836-1.836-3.672-3.06-5.508-4.284c-4.896-2.448-13.464-4.284-15.3,2.448s6.12,12.852,11.016,15.912
			c3.06,1.224,6.12,2.448,9.18,3.06c0.612,9.792,2.448,20.196,4.896,29.988c-1.836-0.612-3.672-1.224-5.508-1.224
			c-6.12-0.612-14.076,1.836-14.076,8.567c0,6.732,8.568,11.628,14.076,12.853c4.284,1.224,8.568,1.224,12.24,0.611
			c3.672,8.568,7.956,16.524,13.464,24.48c-4.284,0-9.18,1.224-12.852,2.448c-4.896,2.447-7.956,7.344-3.672,11.628
			c4.284,4.284,12.852,4.284,18.36,3.06c3.06-0.612,5.508-1.836,7.344-3.672c6.12,7.956,13.464,15.912,21.42,23.256
			c-1.836,0.612-4.284,1.224-6.12,1.836c-5.508,2.448-16.524,9.181-13.464,17.137c2.448,7.344,15.912,4.283,21.42,2.447
			c5.508-1.836,9.792-4.896,12.24-9.18c6.732,4.896,13.464,9.792,20.196,13.464c-2.448,1.224-4.896,3.061-7.344,4.284
			c-4.284,3.06-12.852,9.792-7.956,15.3c4.284,5.508,12.852,1.836,17.748-1.224c4.896-3.061,9.18-6.732,12.24-11.628
			c8.568,3.672,17.748,6.731,26.928,8.567c3.672,0.612,4.896-4.284,1.224-5.508c-7.956-3.06-15.912-6.731-23.868-11.016
			c4.284-6.732,3.672-17.748,1.224-25.093c-1.836-4.896-7.344-10.403-12.24-6.119c-4.896,3.672-3.672,12.239-3.06,17.748
			c0,1.836,0.612,4.283,1.224,6.119c-6.12-3.672-11.628-7.344-17.136-11.016c5.508-8.568,4.896-20.808,1.224-29.988
			c-1.224-2.447-3.06-3.672-5.508-2.447c-6.732,3.672-11.628,12.239-11.016,20.195c-7.344-6.731-13.464-13.464-19.584-20.808
			c3.672-3.672,7.344-8.568,9.18-12.24c2.448-4.896,4.284-13.464,0-17.748c-4.896-4.896-11.016,1.224-14.076,5.508
			c-2.448,3.672-3.672,7.956-4.284,12.24c-4.284-6.12-7.956-12.24-11.016-18.972c11.016-6.12,14.688-21.42,13.464-33.048
			c0-1.224-2.448-2.448-3.672-1.836c-8.568,2.448-14.688,9.18-17.136,17.136c-1.836-6.12-4.284-12.853-5.508-19.583
			c-0.612-3.672-1.224-7.344-1.836-11.016c4.896-0.612,9.792-2.448,14.076-4.896c4.896-3.06,9.18-7.344,9.18-13.464
			c0.612-7.344-6.732-7.956-12.24-6.12c-4.896,1.836-8.568,4.896-11.628,8.568c0.612-11.016,2.448-21.42,6.732-31.212
			c4.896,4.284,11.628,7.344,18.36,6.12c6.12-1.224,11.628-6.12,11.628-12.24S61.47,91.938,55.35,91.938
			c-3.06,0-6.12,1.224-8.568,2.448c-1.224,0.612-3.06,1.224-4.284,1.224c6.12-9.792,14.076-17.748,24.48-24.48
			c3.06,9.18,23.868,27.54,30.6,14.076c2.448-4.896,0.612-11.016-3.672-14.076c-4.896-3.672-11.016-3.672-17.136-4.896
			c10.404-4.284,21.42-4.896,31.212-3.672c-1.836,3.06-2.448,6.732-1.836,10.404c0.612,4.896,3.672,13.464,9.792,14.076
			c9.18,1.224,7.956-12.852,3.06-22.032c9.18,3.06,17.136,8.568,24.48,15.3c-3.06,1.836-6.12,4.284-8.568,7.344
			c-3.672,4.284-5.508,10.404,0.612,14.076c8.568,4.896,14.076-3.06,16.524-11.016c2.448,3.672,4.896,7.956,7.344,12.24
			c-8.568,6.12-7.956,19.584,0.612,25.092c1.224,0.612,2.448,0.612,3.672-0.612c4.284-3.672,6.732-9.792,6.732-15.912
			c1.836,1.224,3.06,2.448,5.507,3.672c3.673,1.836,9.792,3.672,12.24-1.224C190.602,110.298,187.541,106.014,183.869,103.566z"/>
	</g>
</g>
<g>
</g>
<g>
</g>
<g>
</g>
<g>
</g>
<g>
</g>
<g>
</g>
<g>
</g>
<g>
</g>
<g>
</g>
<g>
</g>
<g>
</g>
<g>
</g>
<g>
</g>
<g>
</g>
<g>
</g>
</svg>
