<?xml version="1.0" encoding="iso-8859-1"?>
<!-- Generator: Adobe Illustrator 16.0.0, SVG Export Plug-In . SVG Version: 6.00 Build 0)  -->
<!DOCTYPE svg PUBLIC "-//W3C//DTD SVG 1.1//EN" "http://www.w3.org/Graphics/SVG/1.1/DTD/svg11.dtd">
<svg version="1.1" id="Layer_1" xmlns="http://www.w3.org/2000/svg" xmlns:xlink="http://www.w3.org/1999/xlink" x="0px" y="0px"
	 width="512px" height="512px" viewBox="0 0 512 512" style="enable-background:new 0 0 512 512;" xml:space="preserve">
<path d="M256,22.709c-85.1,0-154.334,69.234-154.334,154.333c0,34.275,21.887,90.155,66.908,170.834
	c31.846,57.063,63.168,104.643,64.484,106.64L256,489.291l22.941-34.774c1.318-1.998,32.641-49.578,64.484-106.64
	c45.023-80.68,66.908-136.559,66.908-170.834C410.334,91.943,341.1,22.709,256,22.709z M256,256c-44.182,0-80-35.817-80-80
	s35.818-80,80-80s80,35.817,80,80S300.182,256,256,256z"/>
</svg>
