<?xml version="1.0" encoding="iso-8859-1"?>
<!-- Generator: Adobe Illustrator 16.0.0, SVG Export Plug-In . SVG Version: 6.00 Build 0)  -->
<!DOCTYPE svg PUBLIC "-//W3C//DTD SVG 1.1//EN" "http://www.w3.org/Graphics/SVG/1.1/DTD/svg11.dtd">
<svg version="1.1" id="Layer_1" xmlns="http://www.w3.org/2000/svg" xmlns:xlink="http://www.w3.org/1999/xlink" x="0px" y="0px"
	 width="512px" height="512px" viewBox="0 0 512 512" style="enable-background:new 0 0 512 512;" xml:space="preserve">
<g>
	<g>
		<polygon points="451.856,204.282 374.051,196.219 342.338,124.714 310.628,196.219 232.822,204.282 291.028,256.538 
			274.653,333.027 342.339,293.818 410.024,333.027 393.65,256.538 		"/>
	</g>
	<g>
		<path d="M197.135,276.919c-22.537-102.12,26.059-203.356,112.762-252.033c-22.201-1.716-45.022-0.25-67.893,4.796
			C117.017,57.267,38.055,180.951,65.639,305.939c27.585,124.988,151.269,203.95,276.257,176.365
			c22.868-5.047,44.188-13.323,63.604-24.224C306.362,450.419,219.672,379.038,197.135,276.919z"/>
	</g>
</g>
</svg>
