<?xml version="1.0" encoding="iso-8859-1"?>
<!-- Generator: Adobe Illustrator 16.0.0, SVG Export Plug-In . SVG Version: 6.00 Build 0)  -->
<!DOCTYPE svg PUBLIC "-//W3C//DTD SVG 1.1//EN" "http://www.w3.org/Graphics/SVG/1.1/DTD/svg11.dtd">
<svg version="1.1" id="Layer_2" xmlns="http://www.w3.org/2000/svg" xmlns:xlink="http://www.w3.org/1999/xlink" x="0px" y="0px"
	 width="512px" height="512px" viewBox="0 0 512 512" style="enable-background:new 0 0 512 512;" xml:space="preserve">
<g>
	<path d="M411.58,150.041c-11.658-23.833-28.316-45.167-48.793-62.283c-24.57-20.539-54.095-34.568-85.38-40.569l-11.303,58.926
		c31.257,5.996,59.183,23.792,78.272,48.778l-40.379,2.915l87.285,128.759l67.885-139.961L411.58,150.041z"/>
	<path d="M260.926,360.191l16.844-36.917l-154.845,14.851l90.267,126.687l19.797-43.39c2.924,0.134,5.849,0.225,8.768,0.225
		c53.882,0,105.371-23.182,141.264-63.602l-44.865-39.84C317.947,340.962,290.521,355.709,260.926,360.191z"/>
	<path d="M122.365,184.039l23.242,33.402l66.148-140.79L56.752,89.74l27.232,39.139c-20.423,30.836-31.152,66.439-31.152,103.844
		c0,21.951,3.762,43.495,11.181,64.035l56.432-20.383c-5.051-13.984-7.612-28.671-7.612-43.652
		C112.832,215.75,116.095,199.329,122.365,184.039z"/>
</g>
</svg>
