<?xml version="1.0" encoding="iso-8859-1"?>
<!-- Generator: Adobe Illustrator 16.0.0, SVG Export Plug-In . SVG Version: 6.00 Build 0)  -->
<!DOCTYPE svg PUBLIC "-//W3C//DTD SVG 1.1//EN" "http://www.w3.org/Graphics/SVG/1.1/DTD/svg11.dtd">
<svg version="1.1" id="Capa_1" xmlns="http://www.w3.org/2000/svg" xmlns:xlink="http://www.w3.org/1999/xlink" x="0px" y="0px"
	 width="105.135px" height="105.135px" viewBox="0 0 105.135 105.135" style="enable-background:new 0 0 105.135 105.135;"
	 xml:space="preserve">
<g>
	<path d="M104.927,86.998l-7.474-12.391c3.897-3.022,7.878-10.041,0.072-25.774c-0.202-0.404-0.579-0.685-1.023-0.765
		c-0.438-0.074-0.903,0.073-1.219,0.386l-1.796,1.766l-0.22-8.523c-0.014-0.267-0.085-0.515-0.232-0.739
		C81.732,23.838,54.663,2.856,53.513,1.966c-0.273-0.21-0.609-0.267-0.949-0.238c-0.341-0.029-0.666,0.034-0.95,0.238
		c-1.15,0.89-28.231,21.873-39.521,38.992c-0.147,0.217-0.221,0.472-0.233,0.739l-0.217,8.523L9.85,48.454
		c-0.323-0.316-0.778-0.46-1.223-0.386c-0.445,0.077-0.823,0.361-1.023,0.765c-7.811,15.733-3.829,22.752,0.07,25.774L0.199,86.998
		c-0.351,0.572-0.217,1.271,0.238,1.715c0.214,0.51,0.708,0.869,1.297,0.869c0.004,0,0.004,0,0.007,0l14.914-0.048
		c0.588,5.03,4.644,12.252,22.673,13.682c0.479,0.041,0.883-0.144,1.177-0.492c0.294-0.343,0.399-0.801,0.294-1.239l-0.631-2.607
		l7.71,4.356c0.21,0.12,0.448,0.182,0.687,0.182c0.021,0,0.046,0,0.063,0c21.069-0.917,53.894-13.71,55.273-14.257
		c0.079-0.027,0.116-0.103,0.191-0.145c0.116-0.033,0.247-0.033,0.363-0.099C105.123,88.524,105.335,87.666,104.927,86.998z
		 M54.295,100.101L43.929,89.452l11.056-0.034l8.812,9.048C60.536,99.15,57.339,99.714,54.295,100.101z M24.753,86.708l9.521-9.904
		c0.13-0.13,0.217-0.277,0.28-0.435c0.972-0.171,1.936-0.346,2.993-0.469l-0.903,3.843c-0.13,0.545,0.074,1.112,0.519,1.444
		c0.452,0.339,1.061,0.373,1.535,0.093l10.142-5.812c0.589,0.031,1.211,0.083,1.826,0.131L40.021,86.66L24.753,86.708z
		 M19.546,86.724c0.633-4.192,4.104-7.368,10.196-9.264l-8.889,9.261L19.546,86.724z M43.922,86.653l10.296-10.712
		c3.046,0.37,6.242,0.91,9.5,1.578l-8.74,9.092L43.922,86.653z M48.541,72.649c-0.267-0.007-0.518,0.059-0.746,0.191l-7.679,4.404
		l0.614-2.614c0.098-0.435-0.007-0.894-0.304-1.242c-0.291-0.328-0.705-0.51-1.186-0.473c-18.007,1.537-22.017,8.795-22.581,13.819
		L3.615,86.783l6.47-10.726c1.488,0.678,3.049,1.037,4.664,1.037c5.838,0,11.947-4.37,18.177-12.99
		c0.264-0.366,0.337-0.835,0.197-1.263c-0.137-0.425-0.477-0.76-0.909-0.896l-2.397-0.767l7.433-4.162
		c0.224-0.13,0.421-0.325,0.544-0.547C45.137,43.105,50.3,21.036,52.578,10.001c2.267,11.027,7.441,33.097,14.781,46.468
		c0.123,0.222,0.322,0.417,0.545,0.547l7.433,4.162l-2.402,0.767c-0.432,0.137-0.767,0.472-0.907,0.896
		c-0.144,0.428-0.068,0.896,0.195,1.263c6.225,8.62,12.34,12.99,18.179,12.99c1.615,0,3.179-0.359,4.664-1.037l5.612,9.295
		C91.67,82.083,66.035,73.302,48.541,72.649z M11.914,73.015l11.568-2.659c-4.279,3.549-8.338,4.671-11.909,3.228L11.914,73.015z
		 M23.824,30.897l3.123,11.774l-5.498,9.122l-3.674-13.858C19.601,35.611,21.644,33.245,23.824,30.897z M37.817,50.027l-13.971,3.21
		l5.495-9.111l11.883-2.729C40.158,44.419,39.022,47.332,37.817,50.027z M21.834,56.585l14.455-3.316
		c-0.252,0.503-0.508,1.023-0.769,1.503l-9.895,5.544c-0.491,0.273-0.772,0.808-0.712,1.368c0.06,0.555,0.438,1.026,0.963,1.198
		l3.604,1.149c-0.751,0.962-1.49,1.827-2.236,2.669c-0.123-0.006-0.248-0.02-0.375,0.015l-12.941,2.974L21.834,56.585z
		 M87.369,37.938l-3.676,13.854l-5.496-9.122l3.125-11.774C83.492,33.245,85.538,35.611,87.369,37.938z M93.559,73.583
		c-3.572,1.451-7.631,0.325-11.905-3.228l11.573,2.659L93.559,73.583z M78.269,66.701c-0.127-0.033-0.25-0.02-0.38-0.014
		c-0.739-0.834-1.481-1.7-2.231-2.669l3.604-1.149c0.521-0.172,0.91-0.646,0.959-1.191c0.064-0.561-0.216-1.095-0.705-1.375
		l-9.904-5.544c-0.25-0.484-0.51-1-0.76-1.504l14.455,3.318l7.898,13.09L78.269,66.701z M81.288,53.237l-13.966-3.21
		c-1.205-2.702-2.341-5.614-3.412-8.631l11.889,2.729L81.288,53.237z M95.965,72.132l-0.627-1.04L98.487,59.2
		C99.942,65.107,99.066,69.514,95.965,72.132z M90.767,53.521c0.014,0.561,0.362,1.056,0.876,1.265
		c0.517,0.212,1.105,0.092,1.513-0.302l2.7-2.652c0.417,0.917,0.745,1.783,1.091,2.652c-0.089,0.134-0.174,0.277-0.219,0.445
		l-3.401,12.822l-7.614-12.617l3.799-14.34c0.328,0.458,0.664,0.924,0.972,1.38L90.767,53.521z M79.295,28.76
		c-0.229,0.181-0.424,0.421-0.513,0.732l-2.608,9.847l-2.519-4.167c-0.396-0.662-1.259-0.869-1.927-0.481
		c-0.66,0.404-0.876,1.258-0.476,1.932l2.519,4.173l-9.931-2.286c-0.314-0.074-0.616-0.014-0.883,0.109
		c-4.11-12.395-6.975-25.774-8.226-32.086C59.745,10.573,70.241,19.354,79.295,28.76z M50.397,6.524
		c-1.24,6.315-4.113,19.691-8.22,32.086c-0.267-0.123-0.568-0.183-0.888-0.109l-9.931,2.286l2.521-4.175
		c0.396-0.662,0.193-1.528-0.48-1.923c-0.659-0.392-1.52-0.193-1.923,0.478l-2.519,4.163l-2.607-9.844
		c-0.077-0.312-0.274-0.554-0.512-0.736C34.895,19.354,45.401,10.573,50.397,6.524z M9.285,51.832l2.695,2.652
		c0.404,0.394,0.996,0.514,1.511,0.302c0.515-0.213,0.87-0.704,0.883-1.265l0.288-11.34c0.301-0.451,0.648-0.918,0.97-1.377
		l3.795,14.33l-7.611,12.624L8.409,54.936c-0.041-0.168-0.124-0.315-0.217-0.448C8.542,53.611,8.868,52.746,9.285,51.832z
		 M6.646,59.193l3.15,11.902l-0.623,1.04C6.068,69.514,5.192,65.103,6.646,59.193z M19.553,89.531h0.739l8.641,8.873
		C23.39,96.525,20.173,93.51,19.553,89.531z M38.747,94.859c-0.217-0.12-0.454-0.178-0.685-0.178c-0.301,0-0.595,0.089-0.844,0.273
		c-0.448,0.342-0.655,0.91-0.515,1.451l0.924,3.84c-1.271-0.145-2.459-0.339-3.608-0.541c-0.067-0.116-0.12-0.239-0.218-0.342
		l-9.587-9.853l15.831-0.059l10.713,11.009c-0.609,0.059-1.237,0.109-1.826,0.141L38.747,94.859z M66.644,97.843
		c-0.031-0.315-0.144-0.616-0.369-0.859L58.9,89.411l5.105-0.021c0.773-0.004,1.399-0.633,1.396-1.403
		c-0.004-0.773-0.633-1.393-1.403-1.393c0,0,0,0-0.003,0l-5.106,0.014l7.327-7.618c0.232-0.235,0.349-0.547,0.366-0.858
		c13.199,2.946,26.628,7.521,32.805,9.753C93.213,90.143,79.809,94.818,66.644,97.843z"/>
</g>
<g>
</g>
<g>
</g>
<g>
</g>
<g>
</g>
<g>
</g>
<g>
</g>
<g>
</g>
<g>
</g>
<g>
</g>
<g>
</g>
<g>
</g>
<g>
</g>
<g>
</g>
<g>
</g>
<g>
</g>
</svg>
