<?xml version="1.0" encoding="iso-8859-1"?>
<!-- Generator: Adobe Illustrator 16.0.0, SVG Export Plug-In . SVG Version: 6.00 Build 0)  -->
<!DOCTYPE svg PUBLIC "-//W3C//DTD SVG 1.1//EN" "http://www.w3.org/Graphics/SVG/1.1/DTD/svg11.dtd">
<svg version="1.1" id="Capa_1" xmlns="http://www.w3.org/2000/svg" xmlns:xlink="http://www.w3.org/1999/xlink" x="0px" y="0px"
	 width="33.444px" height="33.444px" viewBox="0 0 33.444 33.444" style="enable-background:new 0 0 33.444 33.444;"
	 xml:space="preserve">
<g>
	<path d="M31.594,18.203L23.87,20.27l-6.147-3.547l6.147-3.55l7.723,2.069c0.043,0.012,0.087,0.017,0.13,0.017
		c0.222,0,0.423-0.147,0.481-0.371c0.07-0.267-0.088-0.541-0.354-0.612l-6.756-1.81l2.735-1.58l1.438,0.829l1.938-1.117V8.362
		l-1.938-1.118l-1.938,1.118v1.658l-2.735,1.58l1.812-6.755c0.07-0.267-0.088-0.541-0.354-0.612c-0.267-0.07-0.54,0.086-0.612,0.354
		l-2.068,7.721l-6.149,3.55v-7.1l5.651-5.653c0.195-0.195,0.195-0.512,0-0.707c-0.193-0.195-0.512-0.195-0.707,0l-4.942,4.945V4.184
		l1.437-0.83V1.118L16.722,0l-1.937,1.117v2.236l1.437,0.83v3.159l-4.945-4.946c-0.195-0.195-0.512-0.195-0.707,0
		c-0.195,0.195-0.195,0.512,0,0.707l5.652,5.653v7.1l-6.149-3.55L8.004,4.585C7.933,4.318,7.658,4.161,7.392,4.231
		C7.125,4.302,6.967,4.577,7.038,4.843l1.811,6.755l-2.736-1.58V8.36L4.176,7.242L2.239,8.36v2.236l1.937,1.117l1.437-0.829
		l2.736,1.58l-6.756,1.81c-0.267,0.071-0.425,0.346-0.354,0.612c0.06,0.224,0.262,0.371,0.482,0.371c0.043,0,0.086-0.005,0.13-0.017
		l7.722-2.069l6.149,3.551l-6.148,3.549l-7.723-2.068c-0.266-0.07-0.541,0.087-0.612,0.354c-0.071,0.269,0.087,0.541,0.354,0.613
		l6.757,1.809l-2.736,1.58L4.177,21.73l-1.938,1.117l0.002,2.236l1.936,1.117l1.937-1.117v-1.658l2.736-1.58l-1.811,6.756
		c-0.071,0.268,0.087,0.541,0.354,0.611c0.043,0.012,0.087,0.018,0.13,0.018c0.221,0,0.422-0.146,0.482-0.37l2.069-7.724
		l6.148-3.549v7.1l-5.652,5.654c-0.195,0.194-0.195,0.512,0,0.707c0.195,0.194,0.512,0.194,0.707,0l4.945-4.947v3.16l-1.437,0.83
		v2.235l1.937,1.117l1.938-1.117v-2.235l-1.438-0.83v-3.16l4.945,4.947c0.099,0.098,0.227,0.146,0.354,0.146
		s0.256-0.051,0.354-0.146c0.195-0.195,0.195-0.513,0-0.707l-5.65-5.654V17.59l6.146,3.549l2.069,7.723
		c0.06,0.224,0.263,0.369,0.482,0.369c0.043,0,0.086-0.004,0.13-0.016c0.268-0.072,0.425-0.347,0.354-0.613l-1.811-6.756l2.734,1.58
		v1.659l1.938,1.117l1.937-1.117l0.002-2.235l-1.938-1.119l-1.438,0.83l-2.734-1.58l6.757-1.811c0.267-0.07,0.425-0.346,0.354-0.611
		C32.135,18.291,31.86,18.133,31.594,18.203z"/>
</g>
<g>
</g>
<g>
</g>
<g>
</g>
<g>
</g>
<g>
</g>
<g>
</g>
<g>
</g>
<g>
</g>
<g>
</g>
<g>
</g>
<g>
</g>
<g>
</g>
<g>
</g>
<g>
</g>
<g>
</g>
</svg>
