<?xml version="1.0" encoding="iso-8859-1"?>
<!-- Generator: Adobe Illustrator 16.0.0, SVG Export Plug-In . SVG Version: 6.00 Build 0)  -->
<!DOCTYPE svg PUBLIC "-//W3C//DTD SVG 1.1//EN" "http://www.w3.org/Graphics/SVG/1.1/DTD/svg11.dtd">
<svg version="1.1" id="Capa_1" xmlns="http://www.w3.org/2000/svg" xmlns:xlink="http://www.w3.org/1999/xlink" x="0px" y="0px"
	 width="37.08px" height="37.08px" viewBox="0 0 37.08 37.08" style="enable-background:new 0 0 37.08 37.08;" xml:space="preserve"
	>
<g>
	<g>
		<polygon points="8.417,14.239 9.425,14.728 9.76,12.436 8.417,12.051 		"/>
		<polygon points="2.904,17.959 3.507,15.86 1.687,16.361 0,20.225 		"/>
		<polygon points="29.695,24.762 31.287,23.908 31.006,23.847 30.525,23.742 30.157,23.693 		"/>
		<polygon points="30.848,23.416 31.732,23.609 33.008,20.979 32.432,20.897 32.049,20.845 		"/>
		<polygon points="2.784,13.78 1.881,15.906 8.03,14.213 8.03,12.02 3.994,12.652 		"/>
		<polygon points="25.216,8.372 23.659,10.413 25.016,15.357 25.725,17.942 27.355,17.211 28.128,16.865 30.553,10.507 
			30.545,10.475 32.238,7.904 33.198,7.401 27.743,7.053 		"/>
		<polygon points="26.977,19.742 31.818,20.421 31.818,20.421 32.221,20.478 33.104,20.602 33.104,19.807 28.271,17.224 
			27.494,17.573 25.896,18.289 26.232,18.74 		"/>
		<polygon points="25.471,18.479 25.457,18.431 24.438,18.604 24.01,21.361 22.262,25.154 23.471,26.392 23.609,24.791 
			26.635,19.932 25.816,18.832 25.535,18.452 		"/>
		<polygon points="11.356,11.291 10.157,12.393 9.47,17.104 9.519,17.104 9.519,17.104 16.484,17.27 17.765,15.879 16.425,12.334 
			15.581,10.103 		"/>
		<polygon points="23.296,10.556 15.987,10.081 16.86,12.39 18.14,15.772 24.289,18.236 25.088,18.101 25.354,18.056 24.646,15.477 
					"/>
		<polygon points="8.368,28.18 9.212,22.851 8.51,23.889 7.656,25.154 6.545,27.346 		"/>
		<polygon points="35.843,11.47 35.508,12.389 36.305,12.725 		"/>
		<polygon points="18.936,29.759 18.258,27.478 16.793,26.588 17.1,30.027 		"/>
		<polygon points="22.828,28.176 23.396,26.871 22.104,25.548 21.451,27.291 		"/>
		<polygon points="10.838,22.516 16.34,25.859 16.34,25.859 17.895,26.805 14.471,20.67 12.799,22.966 11.344,20.367 		"/>
		<polygon points="32.507,8.2 30.963,10.545 32.65,17.069 33.475,16.837 35.018,12.602 35.018,12.602 35.631,10.921 33.818,7.512 		
			"/>
		<polygon points="36.053,10.892 36.048,10.906 36.086,11.01 37.08,11.01 36.389,10.43 35.884,10.46 36.02,10.828 		"/>
		<polygon points="6.919,21.854 7.58,24.574 9.62,21.555 9.867,21.188 9.867,21.189 10.927,19.621 10.6,19.036 10.153,18.238 		"/>
		<polygon points="11.382,19.64 11.382,19.64 12.841,22.25 14.514,19.953 14.514,19.953 16.192,17.65 10.188,17.508 10.226,17.576 
			10.226,17.576 		"/>
	</g>
</g>
<g>
</g>
<g>
</g>
<g>
</g>
<g>
</g>
<g>
</g>
<g>
</g>
<g>
</g>
<g>
</g>
<g>
</g>
<g>
</g>
<g>
</g>
<g>
</g>
<g>
</g>
<g>
</g>
<g>
</g>
</svg>
