<?xml version="1.0" encoding="iso-8859-1"?>
<!-- Generator: Adobe Illustrator 16.0.0, SVG Export Plug-In . SVG Version: 6.00 Build 0)  -->
<!DOCTYPE svg PUBLIC "-//W3C//DTD SVG 1.1//EN" "http://www.w3.org/Graphics/SVG/1.1/DTD/svg11.dtd">
<svg version="1.1" id="Layer_2" xmlns="http://www.w3.org/2000/svg" xmlns:xlink="http://www.w3.org/1999/xlink" x="0px" y="0px"
	 width="512px" height="512px" viewBox="0 0 512 512" style="enable-background:new 0 0 512 512;" xml:space="preserve">
<g>
	<path d="M279.349,314.023l-87.152-125.073c0,0-77.513-49.656-104.338-63.287V424.59h336.283L279.349,314.023z"/>
	<polygon points="204.005,105.372 184.648,87.409 160.096,123.335 204.005,145.289 	"/>
	<polygon points="246.486,210.517 271.417,203.33 277.086,165.347 239.769,151.179 226.931,171.495 238.814,212.727 	"/>
	<polygon points="346.351,216.725 346.351,181.953 306.52,190.805 316.846,216.725 	"/>
	<polygon points="397.76,344.627 397.76,305.955 374.806,305.955 359.837,317.04 367.821,344.627 	"/>
	<polygon points="390.057,255.627 390.421,243.01 372.377,235.708 359.837,251.66 372.155,267.857 	"/>
	<polygon points="318.125,284.661 328.764,267.774 316.058,251.204 299.769,246.534 284.275,267.569 300.847,289.182 	"/>
	<path d="M21.184,21.184v469.633h469.633V21.184H21.184z M453.246,453.246H58.754V58.754h394.492V453.246z"/>
</g>
</svg>
