<?xml version="1.0" encoding="iso-8859-1"?>
<!-- Generator: Adobe Illustrator 16.0.0, SVG Export Plug-In . SVG Version: 6.00 Build 0)  -->
<!DOCTYPE svg PUBLIC "-//W3C//DTD SVG 1.1//EN" "http://www.w3.org/Graphics/SVG/1.1/DTD/svg11.dtd">
<svg version="1.1" id="Capa_1" xmlns="http://www.w3.org/2000/svg" xmlns:xlink="http://www.w3.org/1999/xlink" x="0px" y="0px"
	 width="261.604px" height="261.604px" viewBox="0 0 261.604 261.604" style="enable-background:new 0 0 261.604 261.604;"
	 xml:space="preserve">
<g>
	<path d="M0,0v261.603h261.604V0H0z M112.33,19.265c0-2.971,2.404-5.375,5.376-5.375c2.973,0,5.375,2.404,5.375,5.375v106.165
		c0,2.971-2.402,5.375-5.375,5.375c-2.972,0-5.376-2.404-5.376-5.375V19.265z M96.204,19.265c0-2.971,2.404-5.375,5.375-5.375
		c2.974,0,5.375,2.404,5.375,5.375v106.165c0,2.971-2.402,5.375-5.375,5.375c-2.971,0-5.375-2.404-5.375-5.375V19.265z
		 M80.077,19.265c0-2.971,2.405-5.375,5.376-5.375c2.973,0,5.375,2.404,5.375,5.375v106.165c0,2.971-2.402,5.375-5.375,5.375
		c-2.971,0-5.376-2.404-5.376-5.375V19.265z M63.951,19.265c0-2.971,2.405-5.375,5.375-5.375c2.975,0,5.375,2.404,5.375,5.375
		v106.165c0,2.971-2.401,5.375-5.375,5.375c-2.971,0-5.375-2.404-5.375-5.375V19.265z M47.825,19.265
		c0-2.971,2.405-5.375,5.376-5.375c2.974,0,5.375,2.404,5.375,5.375v106.165c0,2.971-2.402,5.375-5.375,5.375
		c-2.971,0-5.376-2.404-5.376-5.375V19.265z M31.699,19.265c0-2.971,2.404-5.375,5.375-5.375c2.975,0,5.375,2.404,5.375,5.375
		v106.165c0,2.971-2.401,5.375-5.375,5.375c-2.971,0-5.375-2.404-5.375-5.375V19.265z M15.573,19.265
		c0-2.971,2.404-5.375,5.375-5.375c2.974,0,5.375,2.404,5.375,5.375v106.165c0,2.971-2.402,5.375-5.375,5.375
		c-2.971,0-5.375-2.404-5.375-5.375V19.265z M127.113,247.721H20.948c-2.971,0-5.375-2.405-5.375-5.376s2.404-5.376,5.375-5.376
		h106.165c2.973,0,5.375,2.405,5.375,5.376S130.086,247.721,127.113,247.721z M127.113,231.594H20.948
		c-2.971,0-5.375-2.404-5.375-5.376c0-2.971,2.404-5.375,5.375-5.375h106.165c2.973,0,5.375,2.404,5.375,5.375
		C132.488,229.189,130.086,231.594,127.113,231.594z M127.113,215.467H20.948c-2.971,0-5.375-2.404-5.375-5.375
		c0-2.972,2.404-5.376,5.375-5.376h106.165c2.973,0,5.375,2.404,5.375,5.376C132.488,213.062,130.086,215.467,127.113,215.467z
		 M127.113,199.34H20.948c-2.971,0-5.375-2.402-5.375-5.375c0-2.971,2.404-5.376,5.375-5.376h106.165
		c2.973,0,5.375,2.405,5.375,5.376C132.488,196.938,130.086,199.34,127.113,199.34z M127.113,183.216H20.948
		c-2.971,0-5.375-2.405-5.375-5.376s2.404-5.375,5.375-5.375h106.165c2.973,0,5.375,2.404,5.375,5.375
		S130.086,183.216,127.113,183.216z M127.113,167.089H20.948c-2.971,0-5.375-2.404-5.375-5.376c0-2.971,2.404-5.375,5.375-5.375
		h106.165c2.973,0,5.375,2.404,5.375,5.375C132.488,164.685,130.086,167.089,127.113,167.089z M127.113,150.962H20.948
		c-2.971,0-5.375-2.404-5.375-5.375c0-2.972,2.404-5.376,5.375-5.376h106.165c2.973,0,5.375,2.404,5.375,5.376
		C132.488,148.558,130.086,150.962,127.113,150.962z M144.579,242.345c0,2.971-2.397,5.376-5.375,5.376
		c-2.972,0-5.372-2.405-5.372-5.376V136.181c0-2.972,2.4-5.376,5.372-5.376c2.978,0,5.375,2.404,5.375,5.376V242.345z
		 M160.706,242.345c0,2.971-2.399,5.376-5.376,5.376c-2.971,0-5.375-2.405-5.375-5.376V136.181c0-2.972,2.404-5.376,5.375-5.376
		c2.977,0,5.376,2.404,5.376,5.376V242.345z M176.833,242.345c0,2.971-2.399,5.376-5.376,5.376c-2.971,0-5.376-2.405-5.376-5.376
		V136.181c0-2.972,2.405-5.376,5.376-5.376c2.977,0,5.376,2.404,5.376,5.376V242.345z M192.958,242.345
		c0,2.971-2.399,5.376-5.375,5.376c-2.972,0-5.376-2.405-5.376-5.376V136.181c0-2.972,2.404-5.376,5.376-5.376
		c2.976,0,5.375,2.404,5.375,5.376V242.345z M209.083,242.345c0,2.971-2.397,5.376-5.376,5.376c-2.971,0-5.373-2.405-5.373-5.376
		V136.181c0-2.972,2.402-5.376,5.373-5.376c2.979,0,5.376,2.404,5.376,5.376V242.345z M225.21,242.345
		c0,2.971-2.399,5.376-5.376,5.376c-2.971,0-5.375-2.405-5.375-5.376V136.181c0-2.972,2.404-5.376,5.375-5.376
		c2.977,0,5.376,2.404,5.376,5.376V242.345z M241.336,242.345c0,2.971-2.398,5.376-5.375,5.376c-2.971,0-5.376-2.405-5.376-5.376
		V136.181c0-2.972,2.405-5.376,5.376-5.376c2.977,0,5.375,2.404,5.375,5.376V242.345z M240.665,126.102H134.5
		c-2.968,0-5.373-2.405-5.373-5.375c0-2.971,2.405-5.375,5.373-5.375h106.164c2.977,0,5.375,2.404,5.375,5.375
		C246.04,123.697,243.641,126.102,240.665,126.102z M240.665,109.975H134.5c-2.968,0-5.373-2.405-5.373-5.375
		c0-2.971,2.405-5.376,5.373-5.376h106.164c2.977,0,5.375,2.405,5.375,5.376C246.04,107.57,243.641,109.975,240.665,109.975z
		 M240.665,93.849H134.5c-2.968,0-5.373-2.405-5.373-5.375c0-2.971,2.405-5.375,5.373-5.375h106.164
		c2.977,0,5.375,2.404,5.375,5.375C246.04,91.444,243.641,93.849,240.665,93.849z M240.665,77.723H134.5
		c-2.968,0-5.373-2.404-5.373-5.375c0-2.972,2.405-5.375,5.373-5.375h106.164c2.977,0,5.375,2.404,5.375,5.375
		C246.04,75.319,243.641,77.723,240.665,77.723z M240.665,61.597H134.5c-2.968,0-5.373-2.404-5.373-5.375s2.405-5.375,5.373-5.375
		h106.164c2.977,0,5.375,2.404,5.375,5.375S243.641,61.597,240.665,61.597z M240.665,45.47H134.5c-2.968,0-5.373-2.404-5.373-5.375
		c0-2.971,2.405-5.376,5.373-5.376h106.164c2.977,0,5.375,2.405,5.375,5.376C246.04,43.066,243.641,45.47,240.665,45.47z
		 M240.665,29.344H134.5c-2.968,0-5.373-2.405-5.373-5.375c0-2.971,2.405-5.375,5.373-5.375h106.164
		c2.977,0,5.375,2.404,5.375,5.375C246.04,26.939,243.641,29.344,240.665,29.344z"/>
</g>
<g>
</g>
<g>
</g>
<g>
</g>
<g>
</g>
<g>
</g>
<g>
</g>
<g>
</g>
<g>
</g>
<g>
</g>
<g>
</g>
<g>
</g>
<g>
</g>
<g>
</g>
<g>
</g>
<g>
</g>
</svg>
