<?xml version="1.0" encoding="iso-8859-1"?>
<!-- Generator: Adobe Illustrator 16.0.0, SVG Export Plug-In . SVG Version: 6.00 Build 0)  -->
<!DOCTYPE svg PUBLIC "-//W3C//DTD SVG 1.1//EN" "http://www.w3.org/Graphics/SVG/1.1/DTD/svg11.dtd">
<svg version="1.1" id="Layer_3" xmlns="http://www.w3.org/2000/svg" xmlns:xlink="http://www.w3.org/1999/xlink" x="0px" y="0px"
	 width="512px" height="512px" viewBox="0 0 512 512" style="enable-background:new 0 0 512 512;" xml:space="preserve">
<path d="M423.223,88.777C378.557,44.11,319.168,19.511,256,19.511c-63.169,0-122.557,24.599-167.223,69.267
	C44.109,133.444,19.511,192.832,19.511,256s24.599,122.556,69.267,167.223C133.443,467.89,192.831,492.489,256,492.489
	c63.168,0,122.557-24.599,167.223-69.267c44.668-44.667,69.267-104.054,69.267-167.223S467.891,133.444,423.223,88.777z
	 M444.615,256c0,41.728-13.63,80.326-36.658,111.599L281,240.642V69.045C373.227,81.313,444.615,160.473,444.615,256z M231,442.955
	c-34.572-4.599-66.213-18.597-92.266-39.335L231,311.353V442.955z M281,311.353l92.266,92.266
	c-26.053,20.739-57.693,34.736-92.266,39.335V311.353z M231,69.045v171.597L104.043,367.599
	C81.015,336.326,67.385,297.728,67.385,256C67.385,160.473,138.773,81.313,231,69.045z"/>
</svg>
