<?xml version="1.0" encoding="iso-8859-1"?>
<!-- Generator: Adobe Illustrator 16.0.0, SVG Export Plug-In . SVG Version: 6.00 Build 0)  -->
<!DOCTYPE svg PUBLIC "-//W3C//DTD SVG 1.1//EN" "http://www.w3.org/Graphics/SVG/1.1/DTD/svg11.dtd">
<svg version="1.1" id="Capa_1" xmlns="http://www.w3.org/2000/svg" xmlns:xlink="http://www.w3.org/1999/xlink" x="0px" y="0px"
	 width="342.901px" height="342.901px" viewBox="0 0 342.901 342.901" style="enable-background:new 0 0 342.901 342.901;"
	 xml:space="preserve">
<g>
	<g>
		<g>
			<path d="M183.257,103.551c-4.283-3.672-10.403-5.508-15.911-4.283c0,0-0.612,0-0.612,0.611c-1.224-5.508-3.672-9.792-6.12-14.688
				c3.672,1.224,7.956,1.836,11.628,1.224c4.896-0.612,11.627-5.508,9.179-11.016c-2.447-5.508-12.239-7.345-17.135-7.345
				s-10.404,1.225-14.076,4.284c-7.344-6.731-15.912-11.628-25.092-15.3c5.508-2.448,9.792-6.731,12.852-12.852
				c0-0.612,0-1.836-0.612-2.448c-4.896-4.284-12.24-4.896-18.36-1.836c-4.896,2.448-8.568,7.956-9.18,13.464
				c-3.672-0.612-6.732-0.612-10.404-0.612c-7.956,0-15.3,1.836-22.032,4.284c3.672-8.567,5.508-20.808-1.836-23.256
				c-6.12-2.448-10.404,4.896-12.24,9.792c-1.836,6.732-0.612,13.464,3.672,18.36c-10.404,6.12-19.584,14.688-26.928,24.479
				c-1.224-4.284-2.448-9.18-5.508-12.24c-3.672-4.283-10.404-6.119-14.688-1.836c-4.284,4.896,0,12.853,3.672,17.137
				c2.448,3.06,5.508,5.508,9.18,7.344c-3.06,5.508-5.508,11.016-7.344,16.523c-1.836,6.732-3.06,12.853-4.284,19.584
				c-1.836-1.836-3.672-3.06-5.508-4.283c-4.896-2.448-13.464-4.284-15.3,2.447c-1.836,6.732,6.12,12.853,11.016,15.912
				c3.06,1.836,6.12,2.448,9.18,2.448c0.612,9.792,1.836,20.196,4.896,29.987c-1.836-0.611-3.672-1.224-5.508-1.224
				c-6.12-0.612-14.076,1.836-14.076,8.567s8.568,11.628,14.076,12.853c4.284,1.224,8.568,1.224,12.24,0.611
				c3.672,8.567,7.956,16.523,13.464,24.479c-4.284,0-8.568,1.225-12.852,2.448c-4.896,2.447-7.956,7.344-3.672,11.628
				c4.284,4.284,12.852,4.284,18.36,3.061c2.448-0.612,4.896-1.837,7.344-3.673c6.732,7.956,13.464,15.912,21.42,23.257
				c-1.836,0.611-3.672,1.225-5.508,1.836c-5.508,2.447-16.524,9.181-14.076,17.137c2.448,7.344,15.912,4.283,21.42,2.447
				c4.896-1.836,9.792-4.896,12.24-9.181c6.732,4.896,13.464,9.181,20.196,13.464c-2.448,1.226-4.896,3.062-6.732,4.284
				c-4.284,3.061-12.852,9.792-7.956,15.3c4.284,5.509,12.852,1.837,17.748-0.611c4.896-3.061,9.18-6.731,12.24-11.628
				c8.568,3.672,17.748,6.731,26.928,8.567c3.672,0.612,4.896-4.284,1.224-5.508c-7.956-3.061-15.912-6.731-23.868-11.017
				c4.284-6.119,3.672-17.748,1.224-25.092c-1.836-4.896-7.344-10.403-12.24-6.12c-4.896,3.672-3.672,12.239-3.06,17.748
				c0,1.836,0.612,4.283,1.224,6.119c-5.508-3.672-11.628-7.344-16.524-11.016c5.508-8.568,4.896-21.42,1.836-30.601
				c-0.612-2.447-3.06-3.672-5.508-2.447c-6.732,3.672-11.628,12.239-11.016,20.195c-7.344-6.731-13.464-13.465-19.584-20.809
				c3.672-3.672,7.344-8.567,9.18-12.24c2.448-4.896,4.284-13.464,0-17.748c-4.896-4.896-11.016,1.226-14.076,5.509
				c-2.448,3.673-3.672,7.956-4.284,12.239c-4.284-6.119-7.956-12.239-11.016-18.972c11.016-6.12,14.688-21.42,13.464-33.048
				c0-1.836-2.448-2.447-3.672-1.836c-8.568,2.448-14.688,9.18-17.136,17.749c-2.448-6.12-4.284-12.854-5.508-19.584
				c-0.612-3.672-1.224-7.344-1.836-11.016c4.896-0.612,9.792-2.448,14.076-4.896c4.896-3.06,9.18-7.344,9.18-13.464
				c0.612-7.344-6.732-7.956-12.24-6.12c-4.284,1.836-8.568,4.896-11.628,8.568c0.612-11.016,2.448-21.42,6.732-31.212
				c4.896,4.284,11.628,7.344,18.36,6.12c6.12-1.225,11.016-5.508,11.016-12.24c0-6.12-4.284-10.404-10.404-9.792
				c-3.06,0-6.12,1.224-8.568,2.448c-1.224,0.612-3.06,1.224-4.284,1.224c6.12-9.792,14.076-17.748,24.48-24.479
				c3.06,9.18,23.868,27.54,30.6,14.076c2.448-4.896,0.612-11.017-3.672-14.076c-4.896-3.672-11.016-3.672-17.136-4.896
				c10.404-4.284,21.42-4.896,31.212-3.672c-1.836,3.061-2.448,6.732-1.836,10.404c0.612,4.896,3.672,13.464,9.792,14.076
				c9.18,1.224,7.956-12.853,3.06-22.032c9.18,3.06,17.136,8.568,24.48,15.3c-3.06,1.836-6.12,4.284-8.568,7.344
				c-3.672,4.284-5.508,10.404,0.612,14.076c8.568,4.896,14.076-3.06,16.524-11.016c2.448,3.672,4.896,7.956,7.344,12.24
				c-8.568,6.119-7.956,19.584,0.612,25.092c1.224,0.611,2.448,0.611,3.672-0.612c4.284-3.672,6.732-9.792,6.732-15.912
				c1.835,1.225,3.06,2.448,5.508,3.672c3.672,1.836,9.792,3.672,12.239-1.224C189.989,110.283,186.93,106,183.257,103.551z
				 M20.466,145.167c-1.224-0.611-3.06-0.611-4.284-1.224c-2.448-1.225-8.568-4.896-8.568-8.568
				c-0.612-3.672,9.18,2.448,10.404,3.672c0.612,0.612,1.836,1.836,2.448,2.448C20.466,142.719,20.466,143.943,20.466,145.167z
				 M123.894,265.731c0-1.836,0-3.672,1.224-1.224c0.612,2.447,1.224,4.896,1.224,7.344c0,3.061,0,6.12-0.612,9.181
				C123.894,276.136,123.282,270.627,123.894,265.731z M118.998,292.048c0.612,0,0.612,0.611,1.224,0.611
				c-1.836,1.836-3.672,3.672-6.12,4.896c-1.836,1.225-3.672,2.447-6.12,3.061c0,0-2.448,0.611-3.672,1.224
				c0,0,0.612-0.611,0.612-1.224c0.612-0.612,1.224-1.836,2.448-2.448c1.836-1.836,3.672-3.061,6.12-4.283
				C115.326,293.271,117.162,292.659,118.998,292.048z M97.578,246.147c1.224,5.509,0,11.017-1.836,15.912
				C93.294,257.163,93.906,251.043,97.578,246.147z M85.95,270.016c-2.448,3.672-6.732,5.508-11.016,6.12
				c-1.224,0-4.896,0-6.732,0.611c0-0.611,0.612-0.611,0.612-1.225c4.284-4.896,9.792-6.119,15.3-6.731
				C84.726,269.403,85.338,270.016,85.95,270.016z M65.142,217.384c0.612-1.225,2.448-4.284,3.672-5.509
				c4.284-3.061,3.06,2.448,2.448,4.896c-1.224,4.284-4.284,7.956-7.344,11.017c0,0-0.612,0-0.612,0.611l-0.612-0.611
				C62.694,224.115,63.306,220.443,65.142,217.384z M49.842,231.459c0.612,0.612,1.224,1.836,1.836,2.448
				c-3.672,1.225-7.344,2.447-11.016,1.836c-0.612,0-4.896-0.611-4.896-1.225c-0.612-0.611,6.12-3.061,6.732-3.061
				C44.946,231.459,47.394,231.459,49.842,231.459z M43.722,194.739c0-7.956,3.672-14.688,10.404-18.359
				c0,4.283-0.612,9.18-3.06,12.852c-1.836,3.673-4.896,6.12-7.956,8.568c0,0,0-0.612-0.612-1.225
				C43.11,195.964,43.722,195.352,43.722,194.739z M41.886,139.047c1.224-0.611,4.896-3.06,6.12-3.06
				c1.836,0.612,1.224,2.448,0.612,3.672c-0.612,1.224-1.224,1.836-1.836,2.448c-3.672,4.284-9.18,4.284-14.688,5.508
				C35.154,143.943,38.214,141.496,41.886,139.047z M16.794,190.455c-4.896-5.508,4.896-3.672,7.344-2.447
				c1.224,0.611,2.448,1.224,3.672,2.447c0.612,1.836,1.224,3.061,1.836,4.896C25.362,195.352,19.854,193.516,16.794,190.455z
				 M25.362,80.295c-0.612-1.224-0.612-2.448,0-3.672c1.224-0.612,2.448,0,3.06,0.612c2.448,1.224,3.06,4.284,4.284,6.12
				c0.612,2.447,1.224,4.284,1.836,6.731C30.87,87.64,27.198,85.192,25.362,80.295z M59.022,98.655
				c2.448,0.612,3.06,4.284,1.836,6.12c-1.224,2.448-4.284,3.06-7.344,3.06c-4.896,0-9.18-3.672-13.464-6.12l0,0
				C45.558,106,54.125,97.432,59.022,98.655z M73.709,42.353c0.612,3.06-1.836,8.567-3.06,11.016c0,0.612-0.612,0.612-0.612,1.224
				c-0.612-1.836-0.612-3.672-0.612-6.12c0-1.836,0.612-4.283,1.224-6.119c0-1.225,0.612-1.836,1.836-1.836
				C73.709,40.517,73.709,40.516,73.709,42.353z M83.502,72.951c3.672,0.612,11.628,3.06,10.404,8.568
				c-1.224,6.12-11.628-3.672-17.748-9.792C78.606,72.339,81.054,72.339,83.502,72.951z M116.55,79.685
				c-2.448-3.061-3.06-7.956-1.836-11.629c0.612,1.225,1.836,2.448,2.448,3.673c0.612,1.836,1.224,3.672,1.224,6.119
				C118.386,79.685,118.998,82.131,116.55,79.685z M116.55,54.591c-0.612,0-1.224-0.611-1.836-0.611
				c1.224-3.672,1.836-6.732,4.896-9.792c3.672-3.672,9.18-4.284,12.852-1.225C128.178,48.471,123.282,52.755,116.55,54.591z
				 M147.15,89.477c-0.612,2.447-1.836,8.567-5.508,8.567c-4.896,0,1.224-6.731,2.448-7.956c1.224-1.224,2.448-2.447,3.672-3.672
				C147.762,87.027,147.15,88.251,147.15,89.477z M155.106,76.624L155.106,76.624L155.106,76.624
				c1.224-1.224,3.06-1.836,5.508-2.448c3.06-0.611,9.792-1.224,12.24,1.225c4.284,3.672-4.896,4.284-7.344,4.284
				C162.45,79.071,158.778,78.459,155.106,76.624z M161.838,122.524c-3.672-4.284-3.672-11.628,0-15.912
				c0.612,0,1.224,0.612,1.836,0.612c0.612,1.836,1.224,4.283,1.224,6.731C164.898,117.016,164.286,119.463,161.838,122.524z
				 M183.257,112.119c-1.224,1.836-6.73-2.448-7.956-3.06c-1.836-1.225-3.671-3.061-4.895-4.896
				c2.447,0.612,4.284,0.612,6.731,1.836C177.749,106.611,184.481,110.283,183.257,112.119z"/>
			<path d="M340.541,120.075c-4.896-4.896-12.24-1.224-16.523,3.06c-1.225,1.225-1.836,2.448-3.061,3.061
				c-0.611-12.24-3.061-24.48-7.956-34.884c3.061-9.792,4.896-41.004-9.792-40.393c-8.567,0.612-8.567,10.404-5.508,20.196
				c-1.836-1.836-4.284-3.061-6.731-4.284c-12.239-6.12-24.479-6.12-36.107-2.448c0-0.611,0-1.836-0.612-2.447
				c-4.896-4.896-11.016-8.568-18.359-8.568c-5.509,0-12.239,3.06-14.075,8.568c-1.837,6.119,3.06,10.403,7.956,12.239
				c1.224,0.612,3.06,0.612,4.283,1.225c-7.345,5.508-13.465,11.628-18.359,18.359c-6.12-2.447-12.24-3.06-18.36-1.224
				c-5.508,1.836-10.403,6.12-7.956,12.24c4.284,11.016,19.584,7.956,29.376,1.836c-0.61,3.672-1.224,7.344,0.612,11.016
				c1.836,5.508,6.731,9.18,12.852,10.404c1.226,0,2.448-0.612,3.062-1.836c3.672-6.732,4.284-14.076,1.836-20.809
				c-1.836-4.896-5.508-11.016-10.404-12.852c6.12-5.508,12.24-10.404,18.973-14.688c-1.225,2.448-2.447,4.896-3.061,7.345
				c-1.224,6.12-3.06,15.3,3.672,18.972c6.12,3.06,11.628-1.224,14.076-6.732c3.06-7.344,4.284-18.359,2.448-26.315
				c6.12-1.224,12.239-1.224,18.358,0.612c4.896,1.224,9.182,3.672,12.24,6.119c-6.12,0-12.852,2.448-15.912,6.732
				c-3.672,4.896-4.283,12.852,1.226,17.136c5.508,4.284,14.075,1.836,20.194-1.224c3.062-1.224,6.12-3.061,7.956-4.896
				c3.673,8.568,4.896,17.748,5.509,26.929c0.611,3.06,0.611,6.12,0.611,9.18c-1.836-1.836-3.672-4.284-6.12-6.12
				c-2.447-2.448-4.283-4.896-7.344-5.508c-6.731-2.448-11.016,4.896-9.18,11.016s7.344,11.017,12.852,13.464
				c3.062,1.225,6.12,1.836,9.181,1.225c-0.611,13.464-3.061,26.928-6.731,39.779c-0.612-6.12-3.061-13.464-6.732-17.136
				c-3.06-3.672-9.18-4.284-12.238,0c-6.732,9.792,4.283,25.704,13.464,33.048c-4.896,12.239-11.018,23.256-18.36,33.66
				c-1.224-6.12-3.06-12.24-6.73-16.523c-2.448-3.673-7.956-7.345-12.24-5.509c-6.12,3.061-2.448,11.628,0,16.523
				c3.06,5.509,7.344,10.404,12.852,14.076c-6.73,8.567-14.076,16.523-22.644,24.479c-0.612-4.896-1.836-10.403-4.284-14.076
				c-2.448-3.672-7.344-8.567-12.24-5.508c-4.284,3.061-3.06,11.017-1.224,15.3c1.836,4.896,4.284,9.181,8.567,12.24
				c-8.567,7.344-17.748,14.075-27.54,20.809c-1.225,1.224-0.611,3.672,1.225,3.06c10.404-3.672,20.196-8.567,29.376-14.688
				c7.956,9.18,31.824,15.3,37.944,3.06c3.06-6.12-1.837-11.628-7.346-14.075c-4.896-1.837-11.016-1.837-16.522,0
				c7.344-6.12,14.076-13.465,19.584-20.809c5.508,3.672,13.464,4.284,19.584,3.061c6.12-1.225,15.912-4.896,18.358-11.017
				c4.284-12.853-17.136-10.404-28.15-5.508c7.344-11.017,12.852-22.645,17.748-34.272c14.075,1.836,33.048-12.239,25.092-27.54
				c-0.612-1.224-2.448-2.447-4.284-1.836c-4.896,1.836-9.792,4.284-13.464,7.956c3.672-12.852,5.508-25.704,6.12-38.556
				c5.508,0,12.852-6.732,16.523-10.404C341.766,132.316,345.438,124.971,340.541,120.075z M199.781,104.776
				c-7.956-1.836,1.224-5.508,4.284-6.12c4.283-0.612,8.566,0,12.239,1.836C211.409,103.551,204.677,106.611,199.781,104.776z
				 M224.873,101.715c1.836,1.836,3.061,3.672,4.284,6.12c1.224,4.284,1.224,9.181-0.612,13.464
				c-6.12-2.447-5.508-11.628-4.284-18.972C224.261,102.327,224.873,102.327,224.873,101.715
				C224.873,102.327,224.873,101.715,224.873,101.715z M229.77,63.772c3.673-6.12,15.912,0,19.584,3.06l0,0
				c-1.225,0.612-3.061,1.225-4.283,1.836C237.726,69.279,226.098,69.279,229.77,63.772z M254.861,82.131
				c0,3.061-0.612,5.509-1.225,8.568c-0.611,1.836-3.673,10.404-4.896,6.12c-1.225-3.672,1.224-9.792,2.448-13.464
				c1.224-2.448,2.447-4.896,4.283-7.345C254.861,77.848,254.861,80.295,254.861,82.131z M284.85,98.655
				c-6.731-0.612-5.509-7.344-1.225-10.404c3.672-3.06,9.181-2.448,13.464-3.672c0,0,0,0,0.612,0
				c1.836,2.448,3.672,4.896,5.508,7.956C298.925,96.208,290.357,98.655,284.85,98.655z M309.941,85.192
				c-0.612-1.225-1.836-2.448-2.448-3.672c-0.612-1.836-1.225-4.284-1.836-6.12c-0.612-3.061-1.225-6.12-1.836-9.181
				c0-1.224-1.225-5.508-0.612-6.731c1.836-4.896,4.896,3.672,5.508,5.508c1.226,3.061,1.226,6.732,1.226,10.404
				C310.554,79.071,310.554,82.131,309.941,85.192z M240.173,255.939c1.226-8.567,7.345,3.673,7.956,6.12
				c1.225,3.061,1.836,6.12,1.836,9.181c-0.611,0.611-1.836,1.836-2.447,2.447C243.233,268.791,238.949,262.06,240.173,255.939z
				 M270.161,281.031c1.224,0,6.12,1.224,6.731,3.061c1.225,3.672-4.283,3.061-5.509,3.061c-4.896,0-8.566-1.837-12.239-3.673
				C261.593,281.031,265.877,280.419,270.161,281.031z M271.385,230.848c-1.836-1.836-6.73-8.567-6.119-11.017
				c1.836-4.896,7.345,4.284,7.956,6.12c1.836,3.672,3.061,7.345,3.672,11.017C275.058,234.52,273.222,232.684,271.385,230.848z
				 M301.985,243.699c1.224,0,6.73-0.612,7.956,0c3.06,1.836-1.226,3.672-3.062,4.896c-7.344,4.284-14.688,3.672-22.644,0.611
				c0.611-0.611,0.611-1.225,1.224-1.836h0.612C292.193,246.76,296.478,243.699,301.985,243.699z M301.985,195.352
				c-4.284-4.896-7.956-9.792-9.792-16.523c0-1.225-1.225-4.284-0.612-5.508c3.061-3.061,5.508,4.896,6.12,5.508
				c1.836,4.896,2.448,9.792,3.672,14.688c0,0.611,0.612,0.611,0.612,1.225C302.598,194.739,302.598,194.739,301.985,195.352z
				 M299.537,134.151c-0.612-0.612-3.061-3.672-3.061-4.896c1.225-3.672,5.509,1.225,6.731,1.836
				c3.061,2.448,5.508,4.896,8.568,7.345c0,0.611,0,1.224,0,2.447C306.881,139.659,301.985,137.211,299.537,134.151z
				 M328.301,186.171c0.612,3.673-1.836,7.956-5.508,9.793c-3.06,1.836-7.344,2.447-11.016,3.672
				C316.673,194.127,321.569,189.231,328.301,186.171z M328.301,136.601c-1.836,1.224-3.672,1.836-5.508,2.447
				c0.612-2.447,2.448-4.896,3.672-7.344c1.226-1.836,7.956-8.568,9.182-5.508C337.481,129.255,330.138,134.763,328.301,136.601z"/>
		</g>
	</g>
</g>
<g>
</g>
<g>
</g>
<g>
</g>
<g>
</g>
<g>
</g>
<g>
</g>
<g>
</g>
<g>
</g>
<g>
</g>
<g>
</g>
<g>
</g>
<g>
</g>
<g>
</g>
<g>
</g>
<g>
</g>
</svg>
